<svg width="73" height="73" viewBox="0 0 73 73" fill="none" xmlns="http://www.w3.org/2000/svg">
<circle cx="36.5" cy="36.5" r="36.5" fill="#E63030"/>
<path d="M12.6967 56.4616C8.4775 50.7266 6.00002 43.7537 6.00002 36.2308C6.00002 28.7079 8.4775 21.735 12.6967 16.0001L19.4872 16.0001C14.4185 21.3691 11.3338 28.4576 11.3338 36.2308C11.3338 44.004 14.4185 51.0925 19.4872 56.4616L12.6967 56.4616Z" fill="white" fill-opacity="0.8"/>
<path d="M59.9955 16C64.2147 21.7349 66.6922 28.7078 66.6922 36.2307C66.6922 43.7536 64.2147 50.7265 59.9955 56.4615L53.205 56.4615C58.2737 51.0924 61.3584 44.004 61.3584 36.2307C61.3584 28.4575 58.2737 21.369 53.205 16L59.9955 16Z" fill="white" fill-opacity="0.8"/>
<circle cx="36.3461" cy="36.2307" r="16.859" fill="white" fill-opacity="0.8"/>
</svg>
